<mxfile host="app.diagrams.net" modified="2023-10-10T09:04:44.931Z" agent="Mozilla/5.0 (Windows NT 10.0; Win64; x64) AppleWebKit/537.36 (KHTML, like Gecko) Chrome/117.0.0.0 Safari/537.36 Edg/117.0.2045.60" etag="LsonpijRbSlBNXGp_bZc" version="22.0.4" type="device">
  <diagram name="Page-1" id="2_s2C6QW-8kUR7MiA_9a">
    <mxGraphModel dx="2540" dy="2502" grid="1" gridSize="10" guides="1" tooltips="1" connect="1" arrows="1" fold="1" page="1" pageScale="1" pageWidth="850" pageHeight="1100" math="0" shadow="0">
      <root>
        <mxCell id="0" />
        <mxCell id="1" parent="0" />
        <mxCell id="K_7Gu5z330EdANYs0ep7-1" value="App" style="swimlane;fontStyle=1;align=center;verticalAlign=top;childLayout=stackLayout;horizontal=1;startSize=26;horizontalStack=0;resizeParent=1;resizeParentMax=0;resizeLast=0;collapsible=1;marginBottom=0;whiteSpace=wrap;html=1;labelBackgroundColor=none;fillColor=#F5AB50;strokeColor=#909090;fontColor=#1A1A1A;" vertex="1" parent="1">
          <mxGeometry x="420" y="240" width="160" height="60" as="geometry" />
        </mxCell>
        <mxCell id="K_7Gu5z330EdANYs0ep7-3" value="" style="line;strokeWidth=1;fillColor=none;align=left;verticalAlign=middle;spacingTop=-1;spacingLeft=3;spacingRight=3;rotatable=0;labelPosition=right;points=[];portConstraint=eastwest;strokeColor=#909090;labelBackgroundColor=none;fontColor=#1A1A1A;" vertex="1" parent="K_7Gu5z330EdANYs0ep7-1">
          <mxGeometry y="26" width="160" height="8" as="geometry" />
        </mxCell>
        <mxCell id="K_7Gu5z330EdANYs0ep7-4" value="+ open_config(): json" style="text;strokeColor=none;fillColor=none;align=left;verticalAlign=top;spacingLeft=4;spacingRight=4;overflow=hidden;rotatable=0;points=[[0,0.5],[1,0.5]];portConstraint=eastwest;whiteSpace=wrap;html=1;labelBackgroundColor=none;fontColor=#1A1A1A;" vertex="1" parent="K_7Gu5z330EdANYs0ep7-1">
          <mxGeometry y="34" width="160" height="26" as="geometry" />
        </mxCell>
        <mxCell id="K_7Gu5z330EdANYs0ep7-9" style="edgeStyle=orthogonalEdgeStyle;rounded=0;orthogonalLoop=1;jettySize=auto;html=1;exitX=0.5;exitY=0;exitDx=0;exitDy=0;endArrow=none;endFill=0;targetPerimeterSpacing=0;shadow=0;labelBackgroundColor=none;strokeColor=#182E3E;fontColor=default;" edge="1" parent="1" source="K_7Gu5z330EdANYs0ep7-5" target="K_7Gu5z330EdANYs0ep7-1">
          <mxGeometry relative="1" as="geometry" />
        </mxCell>
        <mxCell id="K_7Gu5z330EdANYs0ep7-46" value="1" style="edgeLabel;html=1;align=center;verticalAlign=middle;resizable=0;points=[];labelBackgroundColor=none;fontColor=#1A1A1A;" vertex="1" connectable="0" parent="K_7Gu5z330EdANYs0ep7-9">
          <mxGeometry x="-0.9129" y="-1" relative="1" as="geometry">
            <mxPoint x="-1" y="12" as="offset" />
          </mxGeometry>
        </mxCell>
        <mxCell id="K_7Gu5z330EdANYs0ep7-47" value="1" style="edgeLabel;html=1;align=center;verticalAlign=middle;resizable=0;points=[];labelBackgroundColor=none;fontColor=#1A1A1A;" vertex="1" connectable="0" parent="K_7Gu5z330EdANYs0ep7-9">
          <mxGeometry x="0.8774" y="-1" relative="1" as="geometry">
            <mxPoint x="5" y="3" as="offset" />
          </mxGeometry>
        </mxCell>
        <mxCell id="K_7Gu5z330EdANYs0ep7-127" value="1" style="edgeLabel;html=1;align=center;verticalAlign=middle;resizable=0;points=[];fontColor=#1A1A1A;" vertex="1" connectable="0" parent="K_7Gu5z330EdANYs0ep7-9">
          <mxGeometry x="-0.3856" relative="1" as="geometry">
            <mxPoint x="6" y="10" as="offset" />
          </mxGeometry>
        </mxCell>
        <mxCell id="K_7Gu5z330EdANYs0ep7-128" value="0..*" style="edgeLabel;html=1;align=center;verticalAlign=middle;resizable=0;points=[];fontColor=#1A1A1A;" vertex="1" connectable="0" parent="K_7Gu5z330EdANYs0ep7-9">
          <mxGeometry x="0.7582" y="-7" relative="1" as="geometry">
            <mxPoint x="4" y="1" as="offset" />
          </mxGeometry>
        </mxCell>
        <mxCell id="K_7Gu5z330EdANYs0ep7-5" value="Config" style="swimlane;fontStyle=1;align=center;verticalAlign=top;childLayout=stackLayout;horizontal=1;startSize=26;horizontalStack=0;resizeParent=1;resizeParentMax=0;resizeLast=0;collapsible=1;marginBottom=0;whiteSpace=wrap;html=1;labelBackgroundColor=none;fillColor=#F5AB50;strokeColor=#909090;fontColor=#1A1A1A;" vertex="1" parent="1">
          <mxGeometry x="420" y="358" width="160" height="34" as="geometry" />
        </mxCell>
        <mxCell id="K_7Gu5z330EdANYs0ep7-7" value="" style="line;strokeWidth=1;fillColor=none;align=left;verticalAlign=middle;spacingTop=-1;spacingLeft=3;spacingRight=3;rotatable=0;labelPosition=right;points=[];portConstraint=eastwest;strokeColor=#909090;labelBackgroundColor=none;fontColor=#1A1A1A;" vertex="1" parent="K_7Gu5z330EdANYs0ep7-5">
          <mxGeometry y="26" width="160" height="8" as="geometry" />
        </mxCell>
        <mxCell id="K_7Gu5z330EdANYs0ep7-10" value="TopWindowYesNo" style="swimlane;fontStyle=1;align=center;verticalAlign=top;childLayout=stackLayout;horizontal=1;startSize=26;horizontalStack=0;resizeParent=1;resizeParentMax=0;resizeLast=0;collapsible=1;marginBottom=0;whiteSpace=wrap;html=1;labelBackgroundColor=none;fillColor=#F5AB50;strokeColor=#909090;fontColor=#1A1A1A;" vertex="1" parent="1">
          <mxGeometry x="180" y="240" width="160" height="118" as="geometry" />
        </mxCell>
        <mxCell id="K_7Gu5z330EdANYs0ep7-11" value="+ master: * obj&lt;br&gt;+ msg: CTkLabel&lt;br&gt;+ question: CTkLabel&lt;br&gt;+ btn_yes: CTkButton&lt;br&gt;+ btn_no: CTkButton" style="text;strokeColor=none;fillColor=none;align=left;verticalAlign=top;spacingLeft=4;spacingRight=4;overflow=hidden;rotatable=0;points=[[0,0.5],[1,0.5]];portConstraint=eastwest;whiteSpace=wrap;html=1;labelBackgroundColor=none;fontColor=#1A1A1A;" vertex="1" parent="K_7Gu5z330EdANYs0ep7-10">
          <mxGeometry y="26" width="160" height="84" as="geometry" />
        </mxCell>
        <mxCell id="K_7Gu5z330EdANYs0ep7-12" value="" style="line;strokeWidth=1;fillColor=none;align=left;verticalAlign=middle;spacingTop=-1;spacingLeft=3;spacingRight=3;rotatable=0;labelPosition=right;points=[];portConstraint=eastwest;strokeColor=#909090;labelBackgroundColor=none;fontColor=#1A1A1A;" vertex="1" parent="K_7Gu5z330EdANYs0ep7-10">
          <mxGeometry y="110" width="160" height="8" as="geometry" />
        </mxCell>
        <mxCell id="K_7Gu5z330EdANYs0ep7-14" style="edgeStyle=orthogonalEdgeStyle;rounded=0;orthogonalLoop=1;jettySize=auto;html=1;entryX=0;entryY=0.25;entryDx=0;entryDy=0;endArrow=none;endFill=0;labelBackgroundColor=none;strokeColor=#182E3E;fontColor=default;exitX=1.001;exitY=0.128;exitDx=0;exitDy=0;exitPerimeter=0;" edge="1" parent="1" source="K_7Gu5z330EdANYs0ep7-10" target="K_7Gu5z330EdANYs0ep7-1">
          <mxGeometry relative="1" as="geometry">
            <mxPoint x="350" y="260" as="sourcePoint" />
          </mxGeometry>
        </mxCell>
        <mxCell id="K_7Gu5z330EdANYs0ep7-48" value="1" style="edgeLabel;html=1;align=center;verticalAlign=middle;resizable=0;points=[];labelBackgroundColor=none;fontColor=#1A1A1A;" vertex="1" connectable="0" parent="K_7Gu5z330EdANYs0ep7-14">
          <mxGeometry x="0.8458" relative="1" as="geometry">
            <mxPoint x="-4" y="-7" as="offset" />
          </mxGeometry>
        </mxCell>
        <mxCell id="K_7Gu5z330EdANYs0ep7-49" value="0..1" style="edgeLabel;html=1;align=center;verticalAlign=middle;resizable=0;points=[];labelBackgroundColor=none;fontColor=#1A1A1A;" vertex="1" connectable="0" parent="K_7Gu5z330EdANYs0ep7-14">
          <mxGeometry x="-0.742" y="1" relative="1" as="geometry">
            <mxPoint x="5" y="-7" as="offset" />
          </mxGeometry>
        </mxCell>
        <mxCell id="K_7Gu5z330EdANYs0ep7-19" value="Extends" style="endArrow=block;endSize=16;endFill=0;html=1;rounded=0;exitX=0.5;exitY=0;exitDx=0;exitDy=0;labelBackgroundColor=none;strokeColor=#182E3E;fontColor=default;" edge="1" parent="1" source="K_7Gu5z330EdANYs0ep7-1" target="K_7Gu5z330EdANYs0ep7-76">
          <mxGeometry x="-0.2287" y="-31" width="160" relative="1" as="geometry">
            <mxPoint x="330" y="430" as="sourcePoint" />
            <mxPoint x="500" y="160" as="targetPoint" />
            <mxPoint as="offset" />
          </mxGeometry>
        </mxCell>
        <mxCell id="K_7Gu5z330EdANYs0ep7-107" value="" style="edgeStyle=orthogonalEdgeStyle;rounded=0;orthogonalLoop=1;jettySize=auto;html=1;endArrow=none;endFill=0;labelBackgroundColor=none;strokeColor=#182E3E;fontColor=default;entryX=-0.002;entryY=0.112;entryDx=0;entryDy=0;entryPerimeter=0;" edge="1" parent="1" source="K_7Gu5z330EdANYs0ep7-21" target="K_7Gu5z330EdANYs0ep7-85">
          <mxGeometry relative="1" as="geometry">
            <mxPoint x="1220" y="-140" as="targetPoint" />
            <Array as="points">
              <mxPoint x="1120" y="83" />
              <mxPoint x="1120" y="-140" />
            </Array>
          </mxGeometry>
        </mxCell>
        <mxCell id="K_7Gu5z330EdANYs0ep7-20" value="DatabaseFrame" style="swimlane;fontStyle=1;align=center;verticalAlign=top;childLayout=stackLayout;horizontal=1;startSize=26;horizontalStack=0;resizeParent=1;resizeParentMax=0;resizeLast=0;collapsible=1;marginBottom=0;whiteSpace=wrap;html=1;labelBackgroundColor=none;fillColor=#F5AB50;strokeColor=#909090;fontColor=#1A1A1A;" vertex="1" parent="1">
          <mxGeometry x="920" y="40" width="160" height="130" as="geometry" />
        </mxCell>
        <mxCell id="K_7Gu5z330EdANYs0ep7-21" value="+ master: * App" style="text;strokeColor=none;fillColor=none;align=left;verticalAlign=top;spacingLeft=4;spacingRight=4;overflow=hidden;rotatable=0;points=[[0,0.5],[1,0.5]];portConstraint=eastwest;whiteSpace=wrap;html=1;labelBackgroundColor=none;fontColor=#1A1A1A;" vertex="1" parent="K_7Gu5z330EdANYs0ep7-20">
          <mxGeometry y="26" width="160" height="34" as="geometry" />
        </mxCell>
        <mxCell id="K_7Gu5z330EdANYs0ep7-22" value="" style="line;strokeWidth=1;fillColor=none;align=left;verticalAlign=middle;spacingTop=-1;spacingLeft=3;spacingRight=3;rotatable=0;labelPosition=right;points=[];portConstraint=eastwest;strokeColor=#909090;labelBackgroundColor=none;fontColor=#1A1A1A;" vertex="1" parent="K_7Gu5z330EdANYs0ep7-20">
          <mxGeometry y="60" width="160" height="8" as="geometry" />
        </mxCell>
        <mxCell id="K_7Gu5z330EdANYs0ep7-23" value="+ get(): list&lt;br&gt;+ refresh(): None&lt;br&gt;+ save_to_json(): None" style="text;strokeColor=none;fillColor=none;align=left;verticalAlign=top;spacingLeft=4;spacingRight=4;overflow=hidden;rotatable=0;points=[[0,0.5],[1,0.5]];portConstraint=eastwest;whiteSpace=wrap;html=1;labelBackgroundColor=none;fontColor=#1A1A1A;" vertex="1" parent="K_7Gu5z330EdANYs0ep7-20">
          <mxGeometry y="68" width="160" height="62" as="geometry" />
        </mxCell>
        <mxCell id="K_7Gu5z330EdANYs0ep7-24" value="ProcessFrame" style="swimlane;fontStyle=1;align=center;verticalAlign=top;childLayout=stackLayout;horizontal=1;startSize=26;horizontalStack=0;resizeParent=1;resizeParentMax=0;resizeLast=0;collapsible=1;marginBottom=0;whiteSpace=wrap;html=1;labelBackgroundColor=none;fillColor=#F5AB50;strokeColor=#909090;fontColor=#1A1A1A;" vertex="1" parent="1">
          <mxGeometry x="920" y="200" width="160" height="130" as="geometry" />
        </mxCell>
        <mxCell id="K_7Gu5z330EdANYs0ep7-25" value="+ master: * App" style="text;strokeColor=none;fillColor=none;align=left;verticalAlign=top;spacingLeft=4;spacingRight=4;overflow=hidden;rotatable=0;points=[[0,0.5],[1,0.5]];portConstraint=eastwest;whiteSpace=wrap;html=1;labelBackgroundColor=none;fontColor=#1A1A1A;" vertex="1" parent="K_7Gu5z330EdANYs0ep7-24">
          <mxGeometry y="26" width="160" height="34" as="geometry" />
        </mxCell>
        <mxCell id="K_7Gu5z330EdANYs0ep7-26" value="" style="line;strokeWidth=1;fillColor=none;align=left;verticalAlign=middle;spacingTop=-1;spacingLeft=3;spacingRight=3;rotatable=0;labelPosition=right;points=[];portConstraint=eastwest;strokeColor=#909090;labelBackgroundColor=none;fontColor=#1A1A1A;" vertex="1" parent="K_7Gu5z330EdANYs0ep7-24">
          <mxGeometry y="60" width="160" height="8" as="geometry" />
        </mxCell>
        <mxCell id="K_7Gu5z330EdANYs0ep7-27" value="+ get(): list&lt;br style=&quot;border-color: var(--border-color);&quot;&gt;+ refresh(): None&lt;br style=&quot;border-color: var(--border-color);&quot;&gt;+ save_to_json(): None" style="text;strokeColor=none;fillColor=none;align=left;verticalAlign=top;spacingLeft=4;spacingRight=4;overflow=hidden;rotatable=0;points=[[0,0.5],[1,0.5]];portConstraint=eastwest;whiteSpace=wrap;html=1;labelBackgroundColor=none;fontColor=#1A1A1A;" vertex="1" parent="K_7Gu5z330EdANYs0ep7-24">
          <mxGeometry y="68" width="160" height="62" as="geometry" />
        </mxCell>
        <mxCell id="K_7Gu5z330EdANYs0ep7-28" value="TextboxFrame" style="swimlane;fontStyle=1;align=center;verticalAlign=top;childLayout=stackLayout;horizontal=1;startSize=26;horizontalStack=0;resizeParent=1;resizeParentMax=0;resizeLast=0;collapsible=1;marginBottom=0;whiteSpace=wrap;html=1;labelBackgroundColor=none;fillColor=#F5AB50;strokeColor=#909090;fontColor=#1A1A1A;" vertex="1" parent="1">
          <mxGeometry x="920" y="358" width="160" height="100" as="geometry" />
        </mxCell>
        <mxCell id="K_7Gu5z330EdANYs0ep7-29" value="+ master: * App" style="text;strokeColor=none;fillColor=none;align=left;verticalAlign=top;spacingLeft=4;spacingRight=4;overflow=hidden;rotatable=0;points=[[0,0.5],[1,0.5]];portConstraint=eastwest;whiteSpace=wrap;html=1;labelBackgroundColor=none;fontColor=#1A1A1A;" vertex="1" parent="K_7Gu5z330EdANYs0ep7-28">
          <mxGeometry y="26" width="160" height="34" as="geometry" />
        </mxCell>
        <mxCell id="K_7Gu5z330EdANYs0ep7-30" value="" style="line;strokeWidth=1;fillColor=none;align=left;verticalAlign=middle;spacingTop=-1;spacingLeft=3;spacingRight=3;rotatable=0;labelPosition=right;points=[];portConstraint=eastwest;strokeColor=#909090;labelBackgroundColor=none;fontColor=#1A1A1A;" vertex="1" parent="K_7Gu5z330EdANYs0ep7-28">
          <mxGeometry y="60" width="160" height="8" as="geometry" />
        </mxCell>
        <mxCell id="K_7Gu5z330EdANYs0ep7-31" value="+ write(msg: str): None" style="text;strokeColor=none;fillColor=none;align=left;verticalAlign=top;spacingLeft=4;spacingRight=4;overflow=hidden;rotatable=0;points=[[0,0.5],[1,0.5]];portConstraint=eastwest;whiteSpace=wrap;html=1;labelBackgroundColor=none;fontColor=#1A1A1A;" vertex="1" parent="K_7Gu5z330EdANYs0ep7-28">
          <mxGeometry y="68" width="160" height="32" as="geometry" />
        </mxCell>
        <mxCell id="K_7Gu5z330EdANYs0ep7-32" value="ProgressFrame" style="swimlane;fontStyle=1;align=center;verticalAlign=top;childLayout=stackLayout;horizontal=1;startSize=26;horizontalStack=0;resizeParent=1;resizeParentMax=0;resizeLast=0;collapsible=1;marginBottom=0;whiteSpace=wrap;html=1;labelBackgroundColor=none;fillColor=#F5AB50;strokeColor=#909090;fontColor=#1A1A1A;" vertex="1" parent="1">
          <mxGeometry x="920" y="485" width="160" height="130" as="geometry" />
        </mxCell>
        <mxCell id="K_7Gu5z330EdANYs0ep7-33" value="+ master: * App" style="text;strokeColor=none;fillColor=none;align=left;verticalAlign=top;spacingLeft=4;spacingRight=4;overflow=hidden;rotatable=0;points=[[0,0.5],[1,0.5]];portConstraint=eastwest;whiteSpace=wrap;html=1;labelBackgroundColor=none;fontColor=#1A1A1A;" vertex="1" parent="K_7Gu5z330EdANYs0ep7-32">
          <mxGeometry y="26" width="160" height="34" as="geometry" />
        </mxCell>
        <mxCell id="K_7Gu5z330EdANYs0ep7-34" value="" style="line;strokeWidth=1;fillColor=none;align=left;verticalAlign=middle;spacingTop=-1;spacingLeft=3;spacingRight=3;rotatable=0;labelPosition=right;points=[];portConstraint=eastwest;strokeColor=#909090;labelBackgroundColor=none;fontColor=#1A1A1A;" vertex="1" parent="K_7Gu5z330EdANYs0ep7-32">
          <mxGeometry y="60" width="160" height="8" as="geometry" />
        </mxCell>
        <mxCell id="K_7Gu5z330EdANYs0ep7-35" value="+ show(): None&lt;br&gt;+ hide(): None&lt;br&gt;+ set_value(val): None" style="text;strokeColor=none;fillColor=none;align=left;verticalAlign=top;spacingLeft=4;spacingRight=4;overflow=hidden;rotatable=0;points=[[0,0.5],[1,0.5]];portConstraint=eastwest;whiteSpace=wrap;html=1;labelBackgroundColor=none;fontColor=#1A1A1A;" vertex="1" parent="K_7Gu5z330EdANYs0ep7-32">
          <mxGeometry y="68" width="160" height="62" as="geometry" />
        </mxCell>
        <mxCell id="K_7Gu5z330EdANYs0ep7-36" value="ButtonsFrame" style="swimlane;fontStyle=1;align=center;verticalAlign=top;childLayout=stackLayout;horizontal=1;startSize=26;horizontalStack=0;resizeParent=1;resizeParentMax=0;resizeLast=0;collapsible=1;marginBottom=0;whiteSpace=wrap;html=1;labelBackgroundColor=none;fillColor=#F5AB50;strokeColor=#909090;fontColor=#1A1A1A;" vertex="1" parent="1">
          <mxGeometry x="920" y="640" width="280" height="230" as="geometry">
            <mxRectangle x="1100" y="530" width="120" height="30" as="alternateBounds" />
          </mxGeometry>
        </mxCell>
        <mxCell id="K_7Gu5z330EdANYs0ep7-37" value="+ master: * App" style="text;strokeColor=none;fillColor=none;align=left;verticalAlign=top;spacingLeft=4;spacingRight=4;overflow=hidden;rotatable=0;points=[[0,0.5],[1,0.5]];portConstraint=eastwest;whiteSpace=wrap;html=1;labelBackgroundColor=none;fontColor=#1A1A1A;" vertex="1" parent="K_7Gu5z330EdANYs0ep7-36">
          <mxGeometry y="26" width="280" height="34" as="geometry" />
        </mxCell>
        <mxCell id="K_7Gu5z330EdANYs0ep7-38" value="" style="line;strokeWidth=1;fillColor=none;align=left;verticalAlign=middle;spacingTop=-1;spacingLeft=3;spacingRight=3;rotatable=0;labelPosition=right;points=[];portConstraint=eastwest;strokeColor=#909090;labelBackgroundColor=none;fontColor=#1A1A1A;" vertex="1" parent="K_7Gu5z330EdANYs0ep7-36">
          <mxGeometry y="60" width="280" height="8" as="geometry" />
        </mxCell>
        <mxCell id="K_7Gu5z330EdANYs0ep7-39" value="+ btn_callback_discard(): None&lt;br&gt;+ btn_callback_start(): None&lt;br&gt;+ btn_callback_save(): None&lt;br&gt;+ btn_callback_save_start(): None&lt;br&gt;+ save(): None&lt;br&gt;+ disable_buttons(): None&lt;br&gt;+ restore_buttons(): None&lt;br&gt;+ open_toplevel(type, msg, yes_fc, no_fc): None&lt;br&gt;+ exit_program(): None&lt;br&gt;+ kill_toplevel_window(): None" style="text;strokeColor=none;fillColor=none;align=left;verticalAlign=top;spacingLeft=4;spacingRight=4;overflow=hidden;rotatable=0;points=[[0,0.5],[1,0.5]];portConstraint=eastwest;whiteSpace=wrap;html=1;labelBackgroundColor=none;fontColor=#1A1A1A;" vertex="1" parent="K_7Gu5z330EdANYs0ep7-36">
          <mxGeometry y="68" width="280" height="162" as="geometry" />
        </mxCell>
        <mxCell id="K_7Gu5z330EdANYs0ep7-61" value="Extends" style="endArrow=block;endSize=16;endFill=0;html=1;rounded=0;exitX=0.002;exitY=0.071;exitDx=0;exitDy=0;jumpStyle=none;labelBackgroundColor=none;strokeColor=#182E3E;fontColor=default;entryX=0.5;entryY=1;entryDx=0;entryDy=0;exitPerimeter=0;" edge="1" parent="1" source="K_7Gu5z330EdANYs0ep7-20" target="K_7Gu5z330EdANYs0ep7-69">
          <mxGeometry x="-0.5768" y="-9" width="160" relative="1" as="geometry">
            <mxPoint x="570" y="360" as="sourcePoint" />
            <mxPoint x="1240" y="210" as="targetPoint" />
            <Array as="points">
              <mxPoint x="740" y="50" />
            </Array>
            <mxPoint as="offset" />
          </mxGeometry>
        </mxCell>
        <mxCell id="K_7Gu5z330EdANYs0ep7-62" value="Extends" style="endArrow=block;endSize=16;endFill=0;html=1;rounded=0;exitX=0;exitY=0.077;exitDx=0;exitDy=0;jumpStyle=none;labelBackgroundColor=none;strokeColor=#182E3E;fontColor=default;entryX=0.5;entryY=1;entryDx=0;entryDy=0;exitPerimeter=0;" edge="1" parent="1" source="K_7Gu5z330EdANYs0ep7-24" target="K_7Gu5z330EdANYs0ep7-69">
          <mxGeometry x="-0.7719" y="-10" width="160" relative="1" as="geometry">
            <mxPoint x="570" y="360" as="sourcePoint" />
            <mxPoint x="1210" y="210" as="targetPoint" />
            <Array as="points">
              <mxPoint x="740" y="210" />
            </Array>
            <mxPoint as="offset" />
          </mxGeometry>
        </mxCell>
        <mxCell id="K_7Gu5z330EdANYs0ep7-63" value="Extends" style="endArrow=block;endSize=16;endFill=0;html=1;rounded=0;exitX=-0.01;exitY=0.129;exitDx=0;exitDy=0;jumpStyle=none;labelBackgroundColor=none;strokeColor=#182E3E;fontColor=default;exitPerimeter=0;entryX=0.5;entryY=1;entryDx=0;entryDy=0;" edge="1" parent="1" source="K_7Gu5z330EdANYs0ep7-28" target="K_7Gu5z330EdANYs0ep7-69">
          <mxGeometry x="-0.8485" y="-11" width="160" relative="1" as="geometry">
            <mxPoint x="570" y="360" as="sourcePoint" />
            <mxPoint x="1190" y="210" as="targetPoint" />
            <Array as="points">
              <mxPoint x="740" y="370" />
            </Array>
            <mxPoint as="offset" />
          </mxGeometry>
        </mxCell>
        <mxCell id="K_7Gu5z330EdANYs0ep7-64" value="Extends" style="endArrow=block;endSize=16;endFill=0;html=1;rounded=0;exitX=-0.006;exitY=0.1;exitDx=0;exitDy=0;jumpStyle=none;labelBackgroundColor=none;strokeColor=#182E3E;fontColor=default;exitPerimeter=0;entryX=0.5;entryY=1;entryDx=0;entryDy=0;" edge="1" parent="1" source="K_7Gu5z330EdANYs0ep7-32" target="K_7Gu5z330EdANYs0ep7-69">
          <mxGeometry x="-0.8769" y="-8" width="160" relative="1" as="geometry">
            <mxPoint x="570" y="360" as="sourcePoint" />
            <mxPoint x="1150" y="210" as="targetPoint" />
            <Array as="points">
              <mxPoint x="740" y="498" />
            </Array>
            <mxPoint as="offset" />
          </mxGeometry>
        </mxCell>
        <mxCell id="K_7Gu5z330EdANYs0ep7-65" value="Extends" style="endArrow=block;endSize=16;endFill=0;html=1;rounded=0;jumpStyle=none;labelBackgroundColor=none;strokeColor=#182E3E;fontColor=default;exitX=-0.003;exitY=0.063;exitDx=0;exitDy=0;exitPerimeter=0;entryX=0.5;entryY=1;entryDx=0;entryDy=0;" edge="1" parent="1" target="K_7Gu5z330EdANYs0ep7-69">
          <mxGeometry x="-0.9006" y="-14" width="160" relative="1" as="geometry">
            <mxPoint x="919.1599999999999" y="654.4899999999998" as="sourcePoint" />
            <mxPoint x="710" y="40" as="targetPoint" />
            <Array as="points">
              <mxPoint x="740" y="654" />
            </Array>
            <mxPoint as="offset" />
          </mxGeometry>
        </mxCell>
        <mxCell id="K_7Gu5z330EdANYs0ep7-69" value="customtkinter.CTkFrame" style="swimlane;fontStyle=1;align=center;verticalAlign=top;childLayout=stackLayout;horizontal=1;startSize=26;horizontalStack=0;resizeParent=1;resizeParentMax=0;resizeLast=0;collapsible=1;marginBottom=0;whiteSpace=wrap;html=1;labelBackgroundColor=none;fillColor=#F5AB50;strokeColor=#909090;fontColor=#1A1A1A;" vertex="1" parent="1">
          <mxGeometry x="640" y="-80" width="200" height="90" as="geometry">
            <mxRectangle x="640" y="-80" width="180" height="30" as="alternateBounds" />
          </mxGeometry>
        </mxCell>
        <mxCell id="K_7Gu5z330EdANYs0ep7-71" value="" style="line;strokeWidth=1;fillColor=none;align=left;verticalAlign=middle;spacingTop=-1;spacingLeft=3;spacingRight=3;rotatable=0;labelPosition=right;points=[];portConstraint=eastwest;strokeColor=#909090;labelBackgroundColor=none;fontColor=#1A1A1A;" vertex="1" parent="K_7Gu5z330EdANYs0ep7-69">
          <mxGeometry y="26" width="200" height="8" as="geometry" />
        </mxCell>
        <mxCell id="K_7Gu5z330EdANYs0ep7-72" value="+ configure(attributes = values)&lt;br&gt;+ cget(attribute_name)&lt;br&gt;+ bind(sequence, command, add)" style="text;strokeColor=none;fillColor=none;align=left;verticalAlign=top;spacingLeft=4;spacingRight=4;overflow=hidden;rotatable=0;points=[[0,0.5],[1,0.5]];portConstraint=eastwest;whiteSpace=wrap;html=1;labelBackgroundColor=none;fontColor=#1A1A1A;" vertex="1" parent="K_7Gu5z330EdANYs0ep7-69">
          <mxGeometry y="34" width="200" height="56" as="geometry" />
        </mxCell>
        <mxCell id="K_7Gu5z330EdANYs0ep7-73" value="customtkinter.CTk" style="swimlane;fontStyle=1;align=center;verticalAlign=top;childLayout=stackLayout;horizontal=1;startSize=26;horizontalStack=0;resizeParent=1;resizeParentMax=0;resizeLast=0;collapsible=1;marginBottom=0;whiteSpace=wrap;html=1;labelBackgroundColor=none;fillColor=#F5AB50;strokeColor=#909090;fontColor=#1A1A1A;" vertex="1" parent="1">
          <mxGeometry x="400" y="-80" width="200" height="230" as="geometry" />
        </mxCell>
        <mxCell id="K_7Gu5z330EdANYs0ep7-75" value="" style="line;strokeWidth=1;fillColor=none;align=left;verticalAlign=middle;spacingTop=-1;spacingLeft=3;spacingRight=3;rotatable=0;labelPosition=right;points=[];portConstraint=eastwest;strokeColor=#909090;labelBackgroundColor=none;fontColor=#1A1A1A;" vertex="1" parent="K_7Gu5z330EdANYs0ep7-73">
          <mxGeometry y="26" width="200" height="8" as="geometry" />
        </mxCell>
        <mxCell id="K_7Gu5z330EdANYs0ep7-76" value="+ configure(attributes=values)&lt;br&gt;+ cget(attribute_name)&lt;br&gt;+ title(string)&lt;br&gt;+ geometry(geometry_string)&lt;br&gt;+ minsize(width, height)&lt;br&gt;+ maxsize(width, height)&lt;br&gt;+ resizeable(width, height)&lt;br&gt;+ after(millis, command)&lt;br&gt;+ withdraw()&lt;br&gt;+ iconify()&lt;br&gt;+ deiconify()&lt;br&gt;+ state(new_state)" style="text;strokeColor=none;fillColor=none;align=left;verticalAlign=top;spacingLeft=4;spacingRight=4;overflow=hidden;rotatable=0;points=[[0,0.5],[1,0.5]];portConstraint=eastwest;whiteSpace=wrap;html=1;labelBackgroundColor=none;fontColor=#1A1A1A;" vertex="1" parent="K_7Gu5z330EdANYs0ep7-73">
          <mxGeometry y="34" width="200" height="196" as="geometry" />
        </mxCell>
        <mxCell id="K_7Gu5z330EdANYs0ep7-78" value="customtkinter.CTkToplevel" style="swimlane;fontStyle=1;align=center;verticalAlign=top;childLayout=stackLayout;horizontal=1;startSize=26;horizontalStack=0;resizeParent=1;resizeParentMax=0;resizeLast=0;collapsible=1;marginBottom=0;whiteSpace=wrap;html=1;labelBackgroundColor=none;fillColor=#F5AB50;strokeColor=#909090;fontColor=#1A1A1A;" vertex="1" parent="1">
          <mxGeometry x="160" y="-80" width="200" height="230" as="geometry" />
        </mxCell>
        <mxCell id="K_7Gu5z330EdANYs0ep7-80" value="" style="line;strokeWidth=1;fillColor=none;align=left;verticalAlign=middle;spacingTop=-1;spacingLeft=3;spacingRight=3;rotatable=0;labelPosition=right;points=[];portConstraint=eastwest;strokeColor=#909090;labelBackgroundColor=none;fontColor=#1A1A1A;" vertex="1" parent="K_7Gu5z330EdANYs0ep7-78">
          <mxGeometry y="26" width="200" height="8" as="geometry" />
        </mxCell>
        <mxCell id="K_7Gu5z330EdANYs0ep7-81" value="+ configure(attributes=values)&lt;br style=&quot;border-color: var(--border-color);&quot;&gt;+ cget(attribute_name)&lt;br style=&quot;border-color: var(--border-color);&quot;&gt;+ title(string)&lt;br style=&quot;border-color: var(--border-color);&quot;&gt;+ geometry(geometry_string)&lt;br style=&quot;border-color: var(--border-color);&quot;&gt;+ minsize(width, height)&lt;br style=&quot;border-color: var(--border-color);&quot;&gt;+ maxsize(width, height)&lt;br style=&quot;border-color: var(--border-color);&quot;&gt;+ resizeable(width, height)&lt;br style=&quot;border-color: var(--border-color);&quot;&gt;+ after(millis, command)&lt;br style=&quot;border-color: var(--border-color);&quot;&gt;+ withdraw()&lt;br style=&quot;border-color: var(--border-color);&quot;&gt;+ iconify()&lt;br style=&quot;border-color: var(--border-color);&quot;&gt;+ deiconify()&lt;br style=&quot;border-color: var(--border-color);&quot;&gt;+ state(new_state)" style="text;strokeColor=none;fillColor=none;align=left;verticalAlign=top;spacingLeft=4;spacingRight=4;overflow=hidden;rotatable=0;points=[[0,0.5],[1,0.5]];portConstraint=eastwest;whiteSpace=wrap;html=1;labelBackgroundColor=none;fontColor=#1A1A1A;" vertex="1" parent="K_7Gu5z330EdANYs0ep7-78">
          <mxGeometry y="34" width="200" height="196" as="geometry" />
        </mxCell>
        <mxCell id="K_7Gu5z330EdANYs0ep7-83" value="Extends" style="endArrow=block;endSize=16;endFill=0;html=1;rounded=0;exitX=0.5;exitY=0;exitDx=0;exitDy=0;labelBackgroundColor=none;strokeColor=#182E3E;fontColor=default;" edge="1" parent="1" source="K_7Gu5z330EdANYs0ep7-10" target="K_7Gu5z330EdANYs0ep7-81">
          <mxGeometry x="-0.2195" y="-25" width="160" relative="1" as="geometry">
            <mxPoint x="350" y="290" as="sourcePoint" />
            <mxPoint x="510" y="290" as="targetPoint" />
            <mxPoint as="offset" />
          </mxGeometry>
        </mxCell>
        <mxCell id="K_7Gu5z330EdANYs0ep7-84" value="customtkinter.CTkLabel" style="swimlane;fontStyle=1;align=center;verticalAlign=top;childLayout=stackLayout;horizontal=1;startSize=26;horizontalStack=0;resizeParent=1;resizeParentMax=0;resizeLast=0;collapsible=1;marginBottom=0;whiteSpace=wrap;html=1;labelBackgroundColor=none;fillColor=#F5AB50;strokeColor=#909090;fontColor=#1A1A1A;" vertex="1" parent="1">
          <mxGeometry x="1240" y="-190" width="280" height="310" as="geometry" />
        </mxCell>
        <mxCell id="K_7Gu5z330EdANYs0ep7-85" value="+ master&lt;br&gt;+ textvariable&lt;br&gt;+ text&lt;br&gt;+ width&lt;br&gt;+ height&lt;br&gt;+ corner_radius&lt;br&gt;+ fg:color&lt;br&gt;+ text_color&lt;br&gt;+ font&lt;br&gt;+ anchor&lt;br&gt;+ compound&lt;br&gt;+ justify&lt;br&gt;+ padx&lt;br&gt;+ pady" style="text;strokeColor=none;fillColor=none;align=left;verticalAlign=top;spacingLeft=4;spacingRight=4;overflow=hidden;rotatable=0;points=[[0,0.5],[1,0.5]];portConstraint=eastwest;whiteSpace=wrap;html=1;labelBackgroundColor=none;fontColor=#1A1A1A;" vertex="1" parent="K_7Gu5z330EdANYs0ep7-84">
          <mxGeometry y="26" width="280" height="214" as="geometry" />
        </mxCell>
        <mxCell id="K_7Gu5z330EdANYs0ep7-86" value="" style="line;strokeWidth=1;fillColor=none;align=left;verticalAlign=middle;spacingTop=-1;spacingLeft=3;spacingRight=3;rotatable=0;labelPosition=right;points=[];portConstraint=eastwest;strokeColor=#909090;labelBackgroundColor=none;fontColor=#1A1A1A;" vertex="1" parent="K_7Gu5z330EdANYs0ep7-84">
          <mxGeometry y="240" width="280" height="8" as="geometry" />
        </mxCell>
        <mxCell id="K_7Gu5z330EdANYs0ep7-87" value="+ configure(attributes=values)&lt;br&gt;+ cget(attribute_name)&lt;br&gt;+ bind(sequence, command, add)" style="text;strokeColor=none;fillColor=none;align=left;verticalAlign=top;spacingLeft=4;spacingRight=4;overflow=hidden;rotatable=0;points=[[0,0.5],[1,0.5]];portConstraint=eastwest;whiteSpace=wrap;html=1;labelBackgroundColor=none;fontColor=#1A1A1A;" vertex="1" parent="K_7Gu5z330EdANYs0ep7-84">
          <mxGeometry y="248" width="280" height="62" as="geometry" />
        </mxCell>
        <mxCell id="K_7Gu5z330EdANYs0ep7-88" value="customtkinter.CTkEntry" style="swimlane;fontStyle=1;align=center;verticalAlign=top;childLayout=stackLayout;horizontal=1;startSize=26;horizontalStack=0;resizeParent=1;resizeParentMax=0;resizeLast=0;collapsible=1;marginBottom=0;whiteSpace=wrap;html=1;labelBackgroundColor=none;fillColor=#F5AB50;strokeColor=#909090;fontColor=#1A1A1A;" vertex="1" parent="1">
          <mxGeometry x="1240" y="170" width="280" height="340" as="geometry" />
        </mxCell>
        <mxCell id="K_7Gu5z330EdANYs0ep7-89" value="+ master&lt;br&gt;+ textvariable&lt;br&gt;+ width&lt;br&gt;+ height&lt;br&gt;+ corner_radius&lt;br&gt;+ fg:color&lt;br&gt;+ text_color&lt;br&gt;+ placeholder_text_color&lt;br&gt;+ placeholder_text&lt;br&gt;+ font&lt;br&gt;+ state" style="text;strokeColor=none;fillColor=none;align=left;verticalAlign=top;spacingLeft=4;spacingRight=4;overflow=hidden;rotatable=0;points=[[0,0.5],[1,0.5]];portConstraint=eastwest;whiteSpace=wrap;html=1;labelBackgroundColor=none;fontColor=#1A1A1A;" vertex="1" parent="K_7Gu5z330EdANYs0ep7-88">
          <mxGeometry y="26" width="280" height="174" as="geometry" />
        </mxCell>
        <mxCell id="K_7Gu5z330EdANYs0ep7-90" value="" style="line;strokeWidth=1;fillColor=none;align=left;verticalAlign=middle;spacingTop=-1;spacingLeft=3;spacingRight=3;rotatable=0;labelPosition=right;points=[];portConstraint=eastwest;strokeColor=#909090;labelBackgroundColor=none;fontColor=#1A1A1A;" vertex="1" parent="K_7Gu5z330EdANYs0ep7-88">
          <mxGeometry y="200" width="280" height="8" as="geometry" />
        </mxCell>
        <mxCell id="K_7Gu5z330EdANYs0ep7-91" value="+ configure(attributes=values)&lt;br&gt;+ cget(attribute_name)&lt;br&gt;+ bind(sequence, command, add)&lt;br&gt;+ delete(first_index, last_index)&lt;br&gt;+ insert(index, string)&lt;br&gt;+ get()&lt;br&gt;+ focus()&lt;br&gt;+ index()" style="text;strokeColor=none;fillColor=none;align=left;verticalAlign=top;spacingLeft=4;spacingRight=4;overflow=hidden;rotatable=0;points=[[0,0.5],[1,0.5]];portConstraint=eastwest;whiteSpace=wrap;html=1;labelBackgroundColor=none;fontColor=#1A1A1A;" vertex="1" parent="K_7Gu5z330EdANYs0ep7-88">
          <mxGeometry y="208" width="280" height="132" as="geometry" />
        </mxCell>
        <mxCell id="K_7Gu5z330EdANYs0ep7-93" value="customtkinter.CTkSwitch" style="swimlane;fontStyle=1;align=center;verticalAlign=top;childLayout=stackLayout;horizontal=1;startSize=26;horizontalStack=0;resizeParent=1;resizeParentMax=0;resizeLast=0;collapsible=1;marginBottom=0;whiteSpace=wrap;html=1;labelBackgroundColor=none;fillColor=#F5AB50;strokeColor=#909090;fontColor=#1A1A1A;" vertex="1" parent="1">
          <mxGeometry x="1600" y="60" width="280" height="450" as="geometry" />
        </mxCell>
        <mxCell id="K_7Gu5z330EdANYs0ep7-94" value="+ master&lt;br&gt;+ width&lt;br&gt;+ height&lt;br&gt;+ switch_width&lt;br&gt;+ switch_height&lt;br&gt;+ corner_radius&lt;br&gt;+ border_width&lt;br&gt;+ fg:color&lt;br&gt;+ border_color&lt;br&gt;+ progress_color&lt;br&gt;+ button_color&lt;br&gt;+ button_hover_color&lt;br&gt;+ hover_color&lt;br&gt;+ text_color&lt;br&gt;+ text&lt;br&gt;+ textvariable&lt;br&gt;+ font&lt;br&gt;+ command&lt;br&gt;+ onvalue&lt;br&gt;+ offvalue&lt;br&gt;+ state" style="text;strokeColor=none;fillColor=none;align=left;verticalAlign=top;spacingLeft=4;spacingRight=4;overflow=hidden;rotatable=0;points=[[0,0.5],[1,0.5]];portConstraint=eastwest;whiteSpace=wrap;html=1;labelBackgroundColor=none;fontColor=#1A1A1A;" vertex="1" parent="K_7Gu5z330EdANYs0ep7-93">
          <mxGeometry y="26" width="280" height="314" as="geometry" />
        </mxCell>
        <mxCell id="K_7Gu5z330EdANYs0ep7-95" value="" style="line;strokeWidth=1;fillColor=none;align=left;verticalAlign=middle;spacingTop=-1;spacingLeft=3;spacingRight=3;rotatable=0;labelPosition=right;points=[];portConstraint=eastwest;strokeColor=#909090;labelBackgroundColor=none;fontColor=#1A1A1A;" vertex="1" parent="K_7Gu5z330EdANYs0ep7-93">
          <mxGeometry y="340" width="280" height="8" as="geometry" />
        </mxCell>
        <mxCell id="K_7Gu5z330EdANYs0ep7-96" value="+ configure(attributes=values)&lt;br&gt;+ cget(attribute_name)&lt;br&gt;+ get()&lt;br&gt;+ select()&lt;br&gt;+ deselect()&lt;br&gt;+ toggle()" style="text;strokeColor=none;fillColor=none;align=left;verticalAlign=top;spacingLeft=4;spacingRight=4;overflow=hidden;rotatable=0;points=[[0,0.5],[1,0.5]];portConstraint=eastwest;whiteSpace=wrap;html=1;labelBackgroundColor=none;fontColor=#1A1A1A;" vertex="1" parent="K_7Gu5z330EdANYs0ep7-93">
          <mxGeometry y="348" width="280" height="102" as="geometry" />
        </mxCell>
        <mxCell id="K_7Gu5z330EdANYs0ep7-97" value="customtkinter.CTkTextbox" style="swimlane;fontStyle=1;align=center;verticalAlign=top;childLayout=stackLayout;horizontal=1;startSize=26;horizontalStack=0;resizeParent=1;resizeParentMax=0;resizeLast=0;collapsible=1;marginBottom=0;whiteSpace=wrap;html=1;labelBackgroundColor=none;fillColor=#F5AB50;strokeColor=#909090;fontColor=#1A1A1A;" vertex="1" parent="1">
          <mxGeometry x="1920" y="640" width="280" height="400" as="geometry" />
        </mxCell>
        <mxCell id="K_7Gu5z330EdANYs0ep7-98" value="+ master&lt;br&gt;+ width&lt;br&gt;+ height&lt;br&gt;+ corner_radius&lt;br&gt;+ border_radius&lt;br&gt;+ border_spacing&lt;br&gt;+ fg_color&lt;br&gt;+ border_color&lt;br&gt;+ text_color&lt;br&gt;+ scrollbar_button_color&lt;br&gt;+ scrollbar_button_hover_color&lt;br&gt;+ font&lt;br&gt;+ activate_scrollbars&lt;br&gt;+ state&lt;br&gt;+ wrap" style="text;strokeColor=none;fillColor=none;align=left;verticalAlign=top;spacingLeft=4;spacingRight=4;overflow=hidden;rotatable=0;points=[[0,0.5],[1,0.5]];portConstraint=eastwest;whiteSpace=wrap;html=1;labelBackgroundColor=none;fontColor=#1A1A1A;" vertex="1" parent="K_7Gu5z330EdANYs0ep7-97">
          <mxGeometry y="26" width="280" height="234" as="geometry" />
        </mxCell>
        <mxCell id="K_7Gu5z330EdANYs0ep7-99" value="" style="line;strokeWidth=1;fillColor=none;align=left;verticalAlign=middle;spacingTop=-1;spacingLeft=3;spacingRight=3;rotatable=0;labelPosition=right;points=[];portConstraint=eastwest;strokeColor=#909090;labelBackgroundColor=none;fontColor=#1A1A1A;" vertex="1" parent="K_7Gu5z330EdANYs0ep7-97">
          <mxGeometry y="260" width="280" height="8" as="geometry" />
        </mxCell>
        <mxCell id="K_7Gu5z330EdANYs0ep7-100" value="+ configure(attributes=values)&lt;br&gt;+ cget(attribute_name)&lt;br&gt;+ bind(sequence, command, add)&lt;br&gt;+ unbind(sequence, funcid)&lt;br&gt;+ insert(index, text, tags)&lt;br&gt;+ delete(self, index1, index2)&lt;br&gt;+ get(index1, index2)&lt;br&gt;+ focus_set()" style="text;strokeColor=none;fillColor=none;align=left;verticalAlign=top;spacingLeft=4;spacingRight=4;overflow=hidden;rotatable=0;points=[[0,0.5],[1,0.5]];portConstraint=eastwest;whiteSpace=wrap;html=1;labelBackgroundColor=none;fontColor=#1A1A1A;" vertex="1" parent="K_7Gu5z330EdANYs0ep7-97">
          <mxGeometry y="268" width="280" height="132" as="geometry" />
        </mxCell>
        <mxCell id="K_7Gu5z330EdANYs0ep7-102" value="customtkinter.CTkButton" style="swimlane;fontStyle=1;align=center;verticalAlign=top;childLayout=stackLayout;horizontal=1;startSize=26;horizontalStack=0;resizeParent=1;resizeParentMax=0;resizeLast=0;collapsible=1;marginBottom=0;whiteSpace=wrap;html=1;labelBackgroundColor=none;fillColor=#F5AB50;strokeColor=#909090;fontColor=#1A1A1A;" vertex="1" parent="1">
          <mxGeometry x="1280" y="640" width="280" height="400" as="geometry" />
        </mxCell>
        <mxCell id="K_7Gu5z330EdANYs0ep7-103" value="+ master&lt;br&gt;+ width&lt;br&gt;+ height&lt;br&gt;+ corner_radius&lt;br&gt;+ border_width&lt;br&gt;+ border_spacing&lt;br&gt;+ fg:color&lt;br&gt;+ hover_color&lt;br&gt;+ border_color&lt;br&gt;+&amp;nbsp;text_color&lt;br&gt;+ text_color_disabled&lt;br&gt;+ text&lt;br&gt;+ textvariable&lt;br&gt;+ font&lt;br&gt;+ command&lt;br&gt;+ image&lt;br&gt;+ compound&lt;br&gt;+ hover&lt;br&gt;+ state&lt;br&gt;+ anchor" style="text;strokeColor=none;fillColor=none;align=left;verticalAlign=top;spacingLeft=4;spacingRight=4;overflow=hidden;rotatable=0;points=[[0,0.5],[1,0.5]];portConstraint=eastwest;whiteSpace=wrap;html=1;labelBackgroundColor=none;fontColor=#1A1A1A;" vertex="1" parent="K_7Gu5z330EdANYs0ep7-102">
          <mxGeometry y="26" width="280" height="304" as="geometry" />
        </mxCell>
        <mxCell id="K_7Gu5z330EdANYs0ep7-104" value="" style="line;strokeWidth=1;fillColor=none;align=left;verticalAlign=middle;spacingTop=-1;spacingLeft=3;spacingRight=3;rotatable=0;labelPosition=right;points=[];portConstraint=eastwest;strokeColor=#909090;labelBackgroundColor=none;fontColor=#1A1A1A;" vertex="1" parent="K_7Gu5z330EdANYs0ep7-102">
          <mxGeometry y="330" width="280" height="8" as="geometry" />
        </mxCell>
        <mxCell id="K_7Gu5z330EdANYs0ep7-105" value="+ configure(attributes=values)&lt;br&gt;+ cget(attribute_name)&lt;br&gt;+ invoke()" style="text;strokeColor=none;fillColor=none;align=left;verticalAlign=top;spacingLeft=4;spacingRight=4;overflow=hidden;rotatable=0;points=[[0,0.5],[1,0.5]];portConstraint=eastwest;whiteSpace=wrap;html=1;labelBackgroundColor=none;fontColor=#1A1A1A;" vertex="1" parent="K_7Gu5z330EdANYs0ep7-102">
          <mxGeometry y="338" width="280" height="62" as="geometry" />
        </mxCell>
        <mxCell id="K_7Gu5z330EdANYs0ep7-113" style="edgeStyle=orthogonalEdgeStyle;rounded=0;orthogonalLoop=1;jettySize=auto;html=1;exitX=1;exitY=0.5;exitDx=0;exitDy=0;endArrow=none;endFill=0;labelBackgroundColor=none;strokeColor=#182E3E;fontColor=default;entryX=-0.002;entryY=0.205;entryDx=0;entryDy=0;entryPerimeter=0;" edge="1" parent="1" source="K_7Gu5z330EdANYs0ep7-25" target="K_7Gu5z330EdANYs0ep7-85">
          <mxGeometry relative="1" as="geometry">
            <mxPoint x="1220" y="-110" as="targetPoint" />
            <Array as="points">
              <mxPoint x="1140" y="243" />
              <mxPoint x="1140" y="-120" />
            </Array>
          </mxGeometry>
        </mxCell>
        <mxCell id="K_7Gu5z330EdANYs0ep7-116" style="edgeStyle=orthogonalEdgeStyle;rounded=0;orthogonalLoop=1;jettySize=auto;html=1;endArrow=none;endFill=0;labelBackgroundColor=none;strokeColor=#182E3E;fontColor=default;entryX=-0.001;entryY=0.299;entryDx=0;entryDy=0;entryPerimeter=0;" edge="1" parent="1" source="K_7Gu5z330EdANYs0ep7-29" target="K_7Gu5z330EdANYs0ep7-85">
          <mxGeometry relative="1" as="geometry">
            <mxPoint x="1230" y="-90" as="targetPoint" />
            <Array as="points">
              <mxPoint x="1160" y="401" />
              <mxPoint x="1160" y="-100" />
            </Array>
          </mxGeometry>
        </mxCell>
        <mxCell id="K_7Gu5z330EdANYs0ep7-119" style="edgeStyle=orthogonalEdgeStyle;rounded=0;orthogonalLoop=1;jettySize=auto;html=1;labelBackgroundColor=none;strokeColor=#182E3E;fontColor=default;endArrow=none;endFill=0;entryX=-0.002;entryY=0.393;entryDx=0;entryDy=0;entryPerimeter=0;" edge="1" parent="1" source="K_7Gu5z330EdANYs0ep7-33" target="K_7Gu5z330EdANYs0ep7-85">
          <mxGeometry relative="1" as="geometry">
            <mxPoint x="1150" y="490" as="sourcePoint" />
            <mxPoint x="1210" y="-60" as="targetPoint" />
            <Array as="points">
              <mxPoint x="1180" y="528" />
              <mxPoint x="1180" y="-80" />
            </Array>
          </mxGeometry>
        </mxCell>
        <mxCell id="K_7Gu5z330EdANYs0ep7-120" value="customtkinter.CTkProgressBar" style="swimlane;fontStyle=1;align=center;verticalAlign=top;childLayout=stackLayout;horizontal=1;startSize=26;horizontalStack=0;resizeParent=1;resizeParentMax=0;resizeLast=0;collapsible=1;marginBottom=0;whiteSpace=wrap;html=1;labelBackgroundColor=none;fillColor=#F5AB50;strokeColor=#909090;fontColor=#1A1A1A;" vertex="1" parent="1">
          <mxGeometry x="1600" y="640" width="280" height="340" as="geometry" />
        </mxCell>
        <mxCell id="K_7Gu5z330EdANYs0ep7-121" value="+ master&lt;br&gt;+ width&lt;br&gt;+ height&lt;br&gt;+ border_width&lt;br&gt;+ corner_radius&lt;br&gt;+ fg_color&lt;br&gt;+ border_color&lt;br&gt;+ progress_color&lt;br&gt;+ orientation&lt;br&gt;+ mode&lt;br&gt;+ determinate_speed&lt;br&gt;+ indeterminate_speed&lt;br&gt;" style="text;strokeColor=none;fillColor=none;align=left;verticalAlign=top;spacingLeft=4;spacingRight=4;overflow=hidden;rotatable=0;points=[[0,0.5],[1,0.5]];portConstraint=eastwest;whiteSpace=wrap;html=1;labelBackgroundColor=none;fontColor=#1A1A1A;" vertex="1" parent="K_7Gu5z330EdANYs0ep7-120">
          <mxGeometry y="26" width="280" height="184" as="geometry" />
        </mxCell>
        <mxCell id="K_7Gu5z330EdANYs0ep7-122" value="" style="line;strokeWidth=1;fillColor=none;align=left;verticalAlign=middle;spacingTop=-1;spacingLeft=3;spacingRight=3;rotatable=0;labelPosition=right;points=[];portConstraint=eastwest;strokeColor=#909090;labelBackgroundColor=none;fontColor=#1A1A1A;" vertex="1" parent="K_7Gu5z330EdANYs0ep7-120">
          <mxGeometry y="210" width="280" height="8" as="geometry" />
        </mxCell>
        <mxCell id="K_7Gu5z330EdANYs0ep7-123" value="+ configure(attributes=values)&lt;br&gt;+ cget(attribute_name)&lt;br&gt;+ set(value)&lt;br&gt;+ get()&lt;br&gt;+ start()&lt;br&gt;+ stop()&lt;br&gt;+ step()" style="text;strokeColor=none;fillColor=none;align=left;verticalAlign=top;spacingLeft=4;spacingRight=4;overflow=hidden;rotatable=0;points=[[0,0.5],[1,0.5]];portConstraint=eastwest;whiteSpace=wrap;html=1;labelBackgroundColor=none;fontColor=#1A1A1A;" vertex="1" parent="K_7Gu5z330EdANYs0ep7-120">
          <mxGeometry y="218" width="280" height="122" as="geometry" />
        </mxCell>
        <mxCell id="K_7Gu5z330EdANYs0ep7-125" style="edgeStyle=orthogonalEdgeStyle;rounded=0;orthogonalLoop=1;jettySize=auto;html=1;exitX=0.5;exitY=0;exitDx=0;exitDy=0;endArrow=none;endFill=0;labelBackgroundColor=none;strokeColor=#182E3E;fontColor=default;" edge="1" parent="1" source="K_7Gu5z330EdANYs0ep7-120" target="K_7Gu5z330EdANYs0ep7-35">
          <mxGeometry relative="1" as="geometry" />
        </mxCell>
        <mxCell id="K_7Gu5z330EdANYs0ep7-40" style="edgeStyle=orthogonalEdgeStyle;rounded=0;orthogonalLoop=1;jettySize=auto;html=1;exitX=0;exitY=0.5;exitDx=0;exitDy=0;endArrow=none;endFill=0;entryX=1;entryY=0.5;entryDx=0;entryDy=0;labelBackgroundColor=none;strokeColor=#182E3E;fontColor=default;jumpStyle=arc;" edge="1" parent="1" source="K_7Gu5z330EdANYs0ep7-21" target="K_7Gu5z330EdANYs0ep7-4">
          <mxGeometry relative="1" as="geometry">
            <mxPoint x="491" y="310" as="targetPoint" />
            <Array as="points">
              <mxPoint x="640" y="83" />
              <mxPoint x="640" y="287" />
            </Array>
          </mxGeometry>
        </mxCell>
        <mxCell id="K_7Gu5z330EdANYs0ep7-41" style="edgeStyle=orthogonalEdgeStyle;rounded=0;orthogonalLoop=1;jettySize=auto;html=1;exitX=0;exitY=0.5;exitDx=0;exitDy=0;entryX=1;entryY=0.5;entryDx=0;entryDy=0;startArrow=none;startFill=0;endArrow=none;endFill=0;labelBackgroundColor=none;strokeColor=#182E3E;fontColor=default;jumpStyle=arc;" edge="1" parent="1" source="K_7Gu5z330EdANYs0ep7-25" target="K_7Gu5z330EdANYs0ep7-4">
          <mxGeometry relative="1" as="geometry">
            <Array as="points">
              <mxPoint x="640" y="243" />
              <mxPoint x="640" y="287" />
            </Array>
          </mxGeometry>
        </mxCell>
        <mxCell id="K_7Gu5z330EdANYs0ep7-43" style="edgeStyle=orthogonalEdgeStyle;rounded=0;orthogonalLoop=1;jettySize=auto;html=1;exitX=0;exitY=0.5;exitDx=0;exitDy=0;entryX=1;entryY=0.5;entryDx=0;entryDy=0;endArrow=none;endFill=0;labelBackgroundColor=none;strokeColor=#182E3E;fontColor=default;jumpStyle=arc;" edge="1" parent="1" source="K_7Gu5z330EdANYs0ep7-33" target="K_7Gu5z330EdANYs0ep7-4">
          <mxGeometry relative="1" as="geometry">
            <Array as="points">
              <mxPoint x="640" y="528" />
              <mxPoint x="640" y="287" />
            </Array>
          </mxGeometry>
        </mxCell>
        <mxCell id="K_7Gu5z330EdANYs0ep7-42" style="edgeStyle=orthogonalEdgeStyle;rounded=0;orthogonalLoop=1;jettySize=auto;html=1;exitX=0;exitY=0.5;exitDx=0;exitDy=0;entryX=1;entryY=0.5;entryDx=0;entryDy=0;endArrow=none;endFill=0;labelBackgroundColor=none;strokeColor=#182E3E;fontColor=default;jumpStyle=arc;" edge="1" parent="1" source="K_7Gu5z330EdANYs0ep7-29" target="K_7Gu5z330EdANYs0ep7-4">
          <mxGeometry relative="1" as="geometry">
            <Array as="points">
              <mxPoint x="640" y="401" />
              <mxPoint x="640" y="287" />
            </Array>
          </mxGeometry>
        </mxCell>
        <mxCell id="K_7Gu5z330EdANYs0ep7-44" style="edgeStyle=orthogonalEdgeStyle;rounded=0;orthogonalLoop=1;jettySize=auto;html=1;exitX=0;exitY=0.5;exitDx=0;exitDy=0;entryX=1;entryY=0.5;entryDx=0;entryDy=0;endArrow=none;endFill=0;labelBackgroundColor=none;strokeColor=#182E3E;fontColor=default;jumpStyle=none;" edge="1" parent="1" source="K_7Gu5z330EdANYs0ep7-37" target="K_7Gu5z330EdANYs0ep7-4">
          <mxGeometry relative="1" as="geometry">
            <Array as="points">
              <mxPoint x="640" y="683" />
              <mxPoint x="640" y="287" />
            </Array>
          </mxGeometry>
        </mxCell>
        <mxCell id="K_7Gu5z330EdANYs0ep7-56" value="1" style="edgeLabel;html=1;align=center;verticalAlign=middle;resizable=0;points=[];labelBackgroundColor=none;fontColor=#1A1A1A;" vertex="1" connectable="0" parent="K_7Gu5z330EdANYs0ep7-44">
          <mxGeometry x="0.9716" y="1" relative="1" as="geometry">
            <mxPoint x="-3" y="-10" as="offset" />
          </mxGeometry>
        </mxCell>
        <mxCell id="K_7Gu5z330EdANYs0ep7-137" style="edgeStyle=orthogonalEdgeStyle;rounded=0;orthogonalLoop=1;jettySize=auto;html=1;exitX=1;exitY=0.5;exitDx=0;exitDy=0;strokeColor=#182E3E;fontColor=#1A1A1A;endArrow=none;endFill=0;" edge="1" parent="1" source="K_7Gu5z330EdANYs0ep7-37" target="K_7Gu5z330EdANYs0ep7-103">
          <mxGeometry relative="1" as="geometry" />
        </mxCell>
        <mxCell id="K_7Gu5z330EdANYs0ep7-112" style="edgeStyle=orthogonalEdgeStyle;rounded=0;orthogonalLoop=1;jettySize=auto;html=1;entryX=0.5;entryY=0;entryDx=0;entryDy=0;endArrow=none;endFill=0;labelBackgroundColor=none;strokeColor=#182E3E;fontColor=default;jumpStyle=arc;" edge="1" parent="1" source="K_7Gu5z330EdANYs0ep7-23" target="K_7Gu5z330EdANYs0ep7-88">
          <mxGeometry relative="1" as="geometry" />
        </mxCell>
        <mxCell id="K_7Gu5z330EdANYs0ep7-114" style="edgeStyle=orthogonalEdgeStyle;rounded=0;orthogonalLoop=1;jettySize=auto;html=1;exitX=0.997;exitY=0.17;exitDx=0;exitDy=0;exitPerimeter=0;endArrow=none;endFill=0;labelBackgroundColor=none;strokeColor=#182E3E;fontColor=default;entryX=0.25;entryY=0;entryDx=0;entryDy=0;jumpStyle=arc;" edge="1" parent="1" source="K_7Gu5z330EdANYs0ep7-27" target="K_7Gu5z330EdANYs0ep7-88">
          <mxGeometry relative="1" as="geometry">
            <Array as="points">
              <mxPoint x="1220" y="278" />
              <mxPoint x="1220" y="150" />
              <mxPoint x="1310" y="150" />
            </Array>
          </mxGeometry>
        </mxCell>
        <mxCell id="K_7Gu5z330EdANYs0ep7-115" style="edgeStyle=orthogonalEdgeStyle;rounded=0;orthogonalLoop=1;jettySize=auto;html=1;exitX=1;exitY=0.5;exitDx=0;exitDy=0;entryX=0;entryY=0.5;entryDx=0;entryDy=0;endArrow=none;endFill=0;labelBackgroundColor=none;strokeColor=#182E3E;fontColor=default;jumpStyle=arc;" edge="1" parent="1" source="K_7Gu5z330EdANYs0ep7-27" target="K_7Gu5z330EdANYs0ep7-94">
          <mxGeometry relative="1" as="geometry">
            <Array as="points">
              <mxPoint x="1220" y="299" />
              <mxPoint x="1220" y="530" />
              <mxPoint x="1560" y="530" />
              <mxPoint x="1560" y="243" />
            </Array>
          </mxGeometry>
        </mxCell>
        <mxCell id="K_7Gu5z330EdANYs0ep7-118" style="edgeStyle=orthogonalEdgeStyle;rounded=0;orthogonalLoop=1;jettySize=auto;html=1;exitX=0.5;exitY=0;exitDx=0;exitDy=0;endArrow=none;endFill=0;labelBackgroundColor=none;strokeColor=#182E3E;fontColor=default;jumpStyle=arc;" edge="1" parent="1" source="K_7Gu5z330EdANYs0ep7-97" target="K_7Gu5z330EdANYs0ep7-31">
          <mxGeometry relative="1" as="geometry">
            <Array as="points">
              <mxPoint x="2060" y="560" />
              <mxPoint x="1200" y="560" />
              <mxPoint x="1200" y="442" />
            </Array>
          </mxGeometry>
        </mxCell>
        <mxCell id="K_7Gu5z330EdANYs0ep7-138" value="GUI FRAMES" style="text;align=center;fontStyle=1;verticalAlign=middle;spacingLeft=3;spacingRight=3;strokeColor=none;rotatable=0;points=[[0,0.5],[1,0.5]];portConstraint=eastwest;html=1;fontColor=#1A1A1A;fontSize=15;" vertex="1" parent="1">
          <mxGeometry x="960" width="80" height="26" as="geometry" />
        </mxCell>
      </root>
    </mxGraphModel>
  </diagram>
</mxfile>
